<svg preserveAspectRatio="none" overflow="visible" style="display: block;" width="16" height="16" viewBox="0 0 16 16" fill="none" xmlns="http://www.w3.org/2000/svg">
<g id="Frame" clip-path="url(#clip0_0_40)">
<g id="Vector">
</g>
<path id="Vector_2" d="M2 8C2 8.78793 2.15519 9.56815 2.45672 10.2961C2.75825 11.0241 3.20021 11.6855 3.75736 12.2426C4.31451 12.7998 4.97595 13.2417 5.7039 13.5433C6.43185 13.8448 7.21207 14 8 14C8.78793 14 9.56815 13.8448 10.2961 13.5433C11.0241 13.2417 11.6855 12.7998 12.2426 12.2426C12.7998 11.6855 13.2417 11.0241 13.5433 10.2961C13.8448 9.56815 14 8.78793 14 8C14 6.4087 13.3679 4.88258 12.2426 3.75736C11.1174 2.63214 9.5913 2 8 2C6.4087 2 4.88258 2.63214 3.75736 3.75736C2.63214 4.88258 2 6.4087 2 8Z" stroke="#191919" stroke-width="0.962402" stroke-linecap="round" stroke-linejoin="round"/>
<path id="Vector_3" d="M8 6H8.00653" stroke="#191919" stroke-width="0.962402" stroke-linecap="round" stroke-linejoin="round"/>
<path id="Vector_4" d="M7.33333 8H8V10.6667H8.66667" stroke="#191919" stroke-width="0.962402" stroke-linecap="round" stroke-linejoin="round"/>
</g>
<defs>
<clipPath id="clip0_0_40">
<rect width="16" height="16" fill="white"/>
</clipPath>
</defs>
</svg>
